<?xml version="1.0" encoding="UTF-8" standalone="no"?>
<!DOCTYPE svg PUBLIC "-//W3C//DTD SVG 1.1//EN"
 "http://www.w3.org/Graphics/SVG/1.1/DTD/svg11.dtd">
<!-- Generated by graphviz version 7.0.0 (20221023.0053)
 -->
<!-- Title: DotNetIdentity.IdentitySettings.Validators.UserValidator.ValidateAsync Pages: 1 -->
<svg width="422pt" height="88pt"
 viewBox="0.00 0.00 422.00 88.00" xmlns="http://www.w3.org/2000/svg" xmlns:xlink="http://www.w3.org/1999/xlink">
<g id="graph0" class="graph" transform="scale(1 1) rotate(0) translate(4 84)">
<title>DotNetIdentity.IdentitySettings.Validators.UserValidator.ValidateAsync</title>
<!-- Node1 -->
<g id="node1" class="node">
<title>Node1</title>
<g id="a_node1"><a xlink:title="Task to validate IdentityUser">
<polygon fill="#bfbfbf" stroke="black" points="0,-24.5 0,-54.5 185,-54.5 185,-24.5 0,-24.5"/>
<text text-anchor="start" x="8" y="-42.5" font-family="Helvetica,sans-Serif" font-size="10.00">DotNetIdentity.IdentitySettings.</text>
<text text-anchor="middle" x="92.5" y="-31.5" font-family="Helvetica,sans-Serif" font-size="10.00">Validators.UserValidator.ValidateAsync</text>
</a>
</g>
</g>
<!-- Node2 -->
<g id="node2" class="node">
<title>Node2</title>
<g id="a_node2"><a xlink:href="class_dot_net_identity_1_1_identity_settings_1_1_error_describer.html#a0b9d619e23c2e3ff14d4b6412aa3cb4f" target="_top" xlink:title="custom IdentityError if username contains user email">
<polygon fill="none" stroke="black" points="221,-49.5 221,-79.5 414,-79.5 414,-49.5 221,-49.5"/>
<text text-anchor="start" x="229" y="-67.5" font-family="Helvetica,sans-Serif" font-size="10.00">DotNetIdentity.IdentitySettings.</text>
<text text-anchor="middle" x="317.5" y="-56.5" font-family="Helvetica,sans-Serif" font-size="10.00">ErrorDescriber.UserNameContainsEmail</text>
</a>
</g>
</g>
<!-- Node1&#45;&gt;Node2 -->
<g id="edge1" class="edge">
<title>Node1&#45;&gt;Node2</title>
<path fill="none" stroke="midnightblue" d="M184.85,-49.74C193.12,-50.67 201.54,-51.61 209.92,-52.55"/>
<polygon fill="midnightblue" stroke="midnightblue" points="209.48,-56.02 219.81,-53.66 210.26,-49.07 209.48,-56.02"/>
</g>
<!-- Node3 -->
<g id="node3" class="node">
<title>Node3</title>
<g id="a_node3"><a xlink:href="class_dot_net_identity_1_1_identity_settings_1_1_error_describer.html#a705ebf72e225a8ec38ede8185d091860" target="_top" xlink:title="custom IdentityError if username length is too short">
<polygon fill="none" stroke="black" points="238.5,-0.5 238.5,-30.5 396.5,-30.5 396.5,-0.5 238.5,-0.5"/>
<text text-anchor="start" x="246.5" y="-18.5" font-family="Helvetica,sans-Serif" font-size="10.00">DotNetIdentity.IdentitySettings.</text>
<text text-anchor="middle" x="317.5" y="-7.5" font-family="Helvetica,sans-Serif" font-size="10.00">ErrorDescriber.UserNameLength</text>
</a>
</g>
</g>
<!-- Node1&#45;&gt;Node3 -->
<g id="edge2" class="edge">
<title>Node1&#45;&gt;Node3</title>
<path fill="none" stroke="midnightblue" d="M184.85,-29.67C198.99,-28.15 213.58,-26.58 227.66,-25.06"/>
<polygon fill="midnightblue" stroke="midnightblue" points="227.76,-28.57 237.33,-24.02 227.01,-21.61 227.76,-28.57"/>
</g>
</g>
</svg>
