<?xml version="1.0" encoding="UTF-8" standalone="no"?>
<!DOCTYPE svg PUBLIC "-//W3C//DTD SVG 1.1//EN"
 "http://www.w3.org/Graphics/SVG/1.1/DTD/svg11.dtd">
<!-- Generated by graphviz version 7.0.0 (20221023.0053)
 -->
<!-- Title: Graphical Class Hierarchy Pages: 1 -->
<svg width="378pt" height="88pt"
 viewBox="0.00 0.00 378.00 88.00" xmlns="http://www.w3.org/2000/svg" xmlns:xlink="http://www.w3.org/1999/xlink">
<g id="graph0" class="graph" transform="scale(1 1) rotate(0) translate(4 84)">
<title>Graphical Class Hierarchy</title>
<!-- Node0 -->
<g id="node1" class="node">
<title>Node0</title>
<g id="a_node1"><a xlink:title=" ">
<polygon fill="none" stroke="#bfbfbf" points="0,-30 0,-49 132,-49 132,-30 0,-30"/>
<text text-anchor="middle" x="66" y="-37" font-family="Helvetica,sans-Serif" font-size="10.00">IAuthorizationRequirement</text>
</a>
</g>
</g>
<!-- Node1 -->
<g id="node2" class="node">
<title>Node1</title>
<g id="a_node2"><a xlink:href="class_dot_net_identity_1_1_identity_settings_1_1_requirements_1_1_free_trial_expire_requirement.html" target="_top" xlink:title="class to define own Identity requirements type of IAuthorizationRequirement">
<polygon fill="none" stroke="black" points="168,-49.5 168,-79.5 370,-79.5 370,-49.5 168,-49.5"/>
<text text-anchor="start" x="176" y="-67.5" font-family="Helvetica,sans-Serif" font-size="10.00">DotNetIdentity.IdentitySettings.</text>
<text text-anchor="middle" x="269" y="-56.5" font-family="Helvetica,sans-Serif" font-size="10.00">Requirements.FreeTrialExpireRequirement</text>
</a>
</g>
</g>
<!-- Node0&#45;&gt;Node1 -->
<g id="edge1" class="edge">
<title>Node0&#45;&gt;Node1</title>
<path fill="none" stroke="midnightblue" d="M143.31,-48.99C151.45,-50 159.81,-51.04 168.17,-52.08"/>
<polygon fill="midnightblue" stroke="midnightblue" points="143.84,-45.53 133.48,-47.77 142.97,-52.48 143.84,-45.53"/>
</g>
<!-- Node2 -->
<g id="node3" class="node">
<title>Node2</title>
<g id="a_node3"><a xlink:href="class_dot_net_identity_1_1_identity_settings_1_1_requirements_1_1_minimum_age_requirement.html" target="_top" xlink:title="class to define own Identity requirements type of IAuthorizationRequirement">
<polygon fill="none" stroke="black" points="172.5,-0.5 172.5,-30.5 365.5,-30.5 365.5,-0.5 172.5,-0.5"/>
<text text-anchor="start" x="180.5" y="-18.5" font-family="Helvetica,sans-Serif" font-size="10.00">DotNetIdentity.IdentitySettings.</text>
<text text-anchor="middle" x="269" y="-7.5" font-family="Helvetica,sans-Serif" font-size="10.00">Requirements.MinimumAgeRequirement</text>
</a>
</g>
</g>
<!-- Node0&#45;&gt;Node2 -->
<g id="edge2" class="edge">
<title>Node0&#45;&gt;Node2</title>
<path fill="none" stroke="midnightblue" d="M143.11,-30.41C152.73,-29.26 162.67,-28.08 172.55,-26.9"/>
<polygon fill="midnightblue" stroke="midnightblue" points="143,-26.9 133.48,-31.56 143.83,-33.85 143,-26.9"/>
</g>
</g>
</svg>
