<?xml version="1.0" encoding="UTF-8" standalone="no"?>
<!DOCTYPE svg PUBLIC "-//W3C//DTD SVG 1.1//EN"
 "http://www.w3.org/Graphics/SVG/1.1/DTD/svg11.dtd">
<!-- Generated by graphviz version 7.0.0 (20221023.0053)
 -->
<!-- Title: Graphical Class Hierarchy Pages: 1 -->
<svg width="331pt" height="88pt"
 viewBox="0.00 0.00 331.00 88.00" xmlns="http://www.w3.org/2000/svg" xmlns:xlink="http://www.w3.org/1999/xlink">
<g id="graph0" class="graph" transform="scale(1 1) rotate(0) translate(4 84)">
<title>Graphical Class Hierarchy</title>
<!-- Node0 -->
<g id="node1" class="node">
<title>Node0</title>
<g id="a_node1"><a xlink:title=" ">
<polygon fill="none" stroke="#bfbfbf" points="0,-30 0,-49 107,-49 107,-30 0,-30"/>
<text text-anchor="middle" x="53.5" y="-37" font-family="Helvetica,sans-Serif" font-size="10.00">AuthorizationHandler</text>
</a>
</g>
</g>
<!-- Node1 -->
<g id="node2" class="node">
<title>Node1</title>
<g id="a_node2"><a xlink:href="class_dot_net_identity_1_1_identity_settings_1_1_requirements_1_1_free_trial_expire_handler.html" target="_top" xlink:title="class to define own Identity requirements type of FreeTrialExpireRequirement">
<polygon fill="none" stroke="black" points="143,-49.5 143,-79.5 323,-79.5 323,-49.5 143,-49.5"/>
<text text-anchor="start" x="151" y="-67.5" font-family="Helvetica,sans-Serif" font-size="10.00">DotNetIdentity.IdentitySettings.</text>
<text text-anchor="middle" x="233" y="-56.5" font-family="Helvetica,sans-Serif" font-size="10.00">Requirements.FreeTrialExpireHandler</text>
</a>
</g>
</g>
<!-- Node0&#45;&gt;Node1 -->
<g id="edge1" class="edge">
<title>Node0&#45;&gt;Node1</title>
<path fill="none" stroke="midnightblue" d="M118.07,-48.45C126.21,-49.6 134.67,-50.79 143.12,-51.98"/>
<polygon fill="midnightblue" stroke="midnightblue" points="118.69,-45.01 108.29,-47.08 117.71,-51.94 118.69,-45.01"/>
</g>
<!-- Node2 -->
<g id="node3" class="node">
<title>Node2</title>
<g id="a_node3"><a xlink:href="class_dot_net_identity_1_1_identity_settings_1_1_requirements_1_1_minimum_age_handler.html" target="_top" xlink:title="class implementing AuthorizationHandler of type MinimumAgeRequirement">
<polygon fill="none" stroke="black" points="147.5,-0.5 147.5,-30.5 318.5,-30.5 318.5,-0.5 147.5,-0.5"/>
<text text-anchor="start" x="155.5" y="-18.5" font-family="Helvetica,sans-Serif" font-size="10.00">DotNetIdentity.IdentitySettings.</text>
<text text-anchor="middle" x="233" y="-7.5" font-family="Helvetica,sans-Serif" font-size="10.00">Requirements.MinimumAgeHandler</text>
</a>
</g>
</g>
<!-- Node0&#45;&gt;Node2 -->
<g id="edge2" class="edge">
<title>Node0&#45;&gt;Node2</title>
<path fill="none" stroke="midnightblue" d="M117.93,-30.92C127.61,-29.61 137.74,-28.25 147.78,-26.89"/>
<polygon fill="midnightblue" stroke="midnightblue" points="117.74,-27.42 108.3,-32.23 118.67,-34.35 117.74,-27.42"/>
</g>
</g>
</svg>
