<?xml version="1.0" encoding="UTF-8" standalone="no"?>
<!DOCTYPE svg PUBLIC "-//W3C//DTD SVG 1.1//EN"
 "http://www.w3.org/Graphics/SVG/1.1/DTD/svg11.dtd">
<!-- Generated by graphviz version 7.0.0 (20221023.0053)
 -->
<!-- Title: Graphical Class Hierarchy Pages: 1 -->
<svg width="235pt" height="333pt"
 viewBox="0.00 0.00 235.00 333.00" xmlns="http://www.w3.org/2000/svg" xmlns:xlink="http://www.w3.org/1999/xlink">
<g id="graph0" class="graph" transform="scale(1 1) rotate(0) translate(4 329)">
<title>Graphical Class Hierarchy</title>
<!-- Node0 -->
<g id="node1" class="node">
<title>Node0</title>
<g id="a_node1"><a xlink:title=" ">
<polygon fill="none" stroke="#bfbfbf" points="0,-153 0,-172 59,-172 59,-153 0,-153"/>
<text text-anchor="middle" x="29.5" y="-160" font-family="Helvetica,sans-Serif" font-size="10.00">Controller</text>
</a>
</g>
</g>
<!-- Node1 -->
<g id="node2" class="node">
<title>Node1</title>
<g id="a_node2"><a xlink:href="class_dot_net_identity_1_1_controllers_1_1_admin_controller.html" target="_top" xlink:title="Controller Class for Admin views">
<polygon fill="none" stroke="black" points="95,-294.5 95,-324.5 227,-324.5 227,-294.5 95,-294.5"/>
<text text-anchor="start" x="103" y="-312.5" font-family="Helvetica,sans-Serif" font-size="10.00">DotNetIdentity.Controllers.</text>
<text text-anchor="middle" x="161" y="-301.5" font-family="Helvetica,sans-Serif" font-size="10.00">AdminController</text>
</a>
</g>
</g>
<!-- Node0&#45;&gt;Node1 -->
<g id="edge1" class="edge">
<title>Node0&#45;&gt;Node1</title>
<path fill="none" stroke="midnightblue" d="M36.11,-182.8C44.58,-209.84 63.11,-257.49 95,-285.5 98.98,-288.99 103.51,-291.99 108.28,-294.57"/>
<polygon fill="midnightblue" stroke="midnightblue" points="39.53,-182.03 33.35,-173.43 32.82,-184.01 39.53,-182.03"/>
</g>
<!-- Node2 -->
<g id="node3" class="node">
<title>Node2</title>
<g id="a_node3"><a xlink:href="class_dot_net_identity_1_1_controllers_1_1_claim_based_controller.html" target="_top" xlink:title="Controller to test ClaimBased Authorization">
<polygon fill="none" stroke="black" points="95,-245.5 95,-275.5 227,-275.5 227,-245.5 95,-245.5"/>
<text text-anchor="start" x="103" y="-263.5" font-family="Helvetica,sans-Serif" font-size="10.00">DotNetIdentity.Controllers.</text>
<text text-anchor="middle" x="161" y="-252.5" font-family="Helvetica,sans-Serif" font-size="10.00">ClaimBasedController</text>
</a>
</g>
</g>
<!-- Node0&#45;&gt;Node2 -->
<g id="edge2" class="edge">
<title>Node0&#45;&gt;Node2</title>
<path fill="none" stroke="midnightblue" d="M42.39,-180.74C54.03,-197.32 73.16,-221.44 95,-236.5 99.95,-239.91 105.45,-242.91 111.09,-245.52"/>
<polygon fill="midnightblue" stroke="midnightblue" points="45.51,-179.11 37,-172.79 39.71,-183.03 45.51,-179.11"/>
</g>
<!-- Node3 -->
<g id="node4" class="node">
<title>Node3</title>
<g id="a_node4"><a xlink:href="class_dot_net_identity_1_1_controllers_1_1_culture_controller.html" target="_top" xlink:title="controller for culture settings">
<polygon fill="none" stroke="black" points="95,-196.5 95,-226.5 227,-226.5 227,-196.5 95,-196.5"/>
<text text-anchor="start" x="103" y="-214.5" font-family="Helvetica,sans-Serif" font-size="10.00">DotNetIdentity.Controllers.</text>
<text text-anchor="middle" x="161" y="-203.5" font-family="Helvetica,sans-Serif" font-size="10.00">CultureController</text>
</a>
</g>
</g>
<!-- Node0&#45;&gt;Node3 -->
<g id="edge3" class="edge">
<title>Node0&#45;&gt;Node3</title>
<path fill="none" stroke="midnightblue" d="M65.12,-176.04C74.78,-179.78 85.29,-183.83 95,-187.5 102.88,-190.48 111.3,-193.62 119.39,-196.62"/>
<polygon fill="midnightblue" stroke="midnightblue" points="66.66,-172.88 56.07,-172.52 64.12,-179.4 66.66,-172.88"/>
</g>
<!-- Node4 -->
<g id="node5" class="node">
<title>Node4</title>
<g id="a_node5"><a xlink:href="class_dot_net_identity_1_1_controllers_1_1_errors_controller.html" target="_top" xlink:title="Controller for error views">
<polygon fill="none" stroke="black" points="95,-147.5 95,-177.5 227,-177.5 227,-147.5 95,-147.5"/>
<text text-anchor="start" x="103" y="-165.5" font-family="Helvetica,sans-Serif" font-size="10.00">DotNetIdentity.Controllers.</text>
<text text-anchor="middle" x="161" y="-154.5" font-family="Helvetica,sans-Serif" font-size="10.00">ErrorsController</text>
</a>
</g>
</g>
<!-- Node0&#45;&gt;Node4 -->
<g id="edge4" class="edge">
<title>Node0&#45;&gt;Node4</title>
<path fill="none" stroke="midnightblue" d="M70.32,-162.5C78.17,-162.5 86.59,-162.5 95.02,-162.5"/>
<polygon fill="midnightblue" stroke="midnightblue" points="70.43,-159 60.43,-162.5 70.43,-166 70.43,-159"/>
</g>
<!-- Node5 -->
<g id="node6" class="node">
<title>Node5</title>
<g id="a_node6"><a xlink:href="class_dot_net_identity_1_1_controllers_1_1_home_controller.html" target="_top" xlink:title="Controller for Home views">
<polygon fill="none" stroke="black" points="95,-98.5 95,-128.5 227,-128.5 227,-98.5 95,-98.5"/>
<text text-anchor="start" x="103" y="-116.5" font-family="Helvetica,sans-Serif" font-size="10.00">DotNetIdentity.Controllers.</text>
<text text-anchor="middle" x="161" y="-105.5" font-family="Helvetica,sans-Serif" font-size="10.00">HomeController</text>
</a>
</g>
</g>
<!-- Node0&#45;&gt;Node5 -->
<g id="edge5" class="edge">
<title>Node0&#45;&gt;Node5</title>
<path fill="none" stroke="midnightblue" d="M66.03,-149.06C82.94,-142.66 103.21,-134.99 120.59,-128.41"/>
<polygon fill="midnightblue" stroke="midnightblue" points="65,-145.7 56.88,-152.52 67.48,-152.25 65,-145.7"/>
</g>
<!-- Node6 -->
<g id="node7" class="node">
<title>Node6</title>
<g id="a_node7"><a xlink:href="class_dot_net_identity_1_1_controllers_1_1_role_based_controller.html" target="_top" xlink:title="Controller to test RoleBased Authorization">
<polygon fill="none" stroke="black" points="95,-49.5 95,-79.5 227,-79.5 227,-49.5 95,-49.5"/>
<text text-anchor="start" x="103" y="-67.5" font-family="Helvetica,sans-Serif" font-size="10.00">DotNetIdentity.Controllers.</text>
<text text-anchor="middle" x="161" y="-56.5" font-family="Helvetica,sans-Serif" font-size="10.00">RoleBasedController</text>
</a>
</g>
</g>
<!-- Node0&#45;&gt;Node6 -->
<g id="edge6" class="edge">
<title>Node0&#45;&gt;Node6</title>
<path fill="none" stroke="midnightblue" d="M42.86,-144.05C54.61,-127.77 73.61,-104.36 95,-89.5 100.56,-85.64 106.8,-82.27 113.15,-79.36"/>
<polygon fill="midnightblue" stroke="midnightblue" points="40.25,-141.69 37.4,-151.89 45.99,-145.69 40.25,-141.69"/>
</g>
<!-- Node7 -->
<g id="node8" class="node">
<title>Node7</title>
<g id="a_node8"><a xlink:href="class_dot_net_identity_1_1_controllers_1_1_user_controller.html" target="_top" xlink:title="Controller Class for User views">
<polygon fill="none" stroke="black" points="95,-0.5 95,-30.5 227,-30.5 227,-0.5 95,-0.5"/>
<text text-anchor="start" x="103" y="-18.5" font-family="Helvetica,sans-Serif" font-size="10.00">DotNetIdentity.Controllers.</text>
<text text-anchor="middle" x="161" y="-7.5" font-family="Helvetica,sans-Serif" font-size="10.00">UserController</text>
</a>
</g>
</g>
<!-- Node0&#45;&gt;Node7 -->
<g id="edge7" class="edge">
<title>Node0&#45;&gt;Node7</title>
<path fill="none" stroke="midnightblue" d="M36.21,-142.42C44.79,-115.68 63.45,-68.49 95,-40.5 99.43,-36.57 104.55,-33.22 109.92,-30.39"/>
<polygon fill="midnightblue" stroke="midnightblue" points="32.96,-141.09 33.41,-151.68 39.66,-143.12 32.96,-141.09"/>
</g>
</g>
</svg>
