<?xml version="1.0" encoding="UTF-8" standalone="no"?>
<!DOCTYPE svg PUBLIC "-//W3C//DTD SVG 1.1//EN"
 "http://www.w3.org/Graphics/SVG/1.1/DTD/svg11.dtd">
<!-- Generated by graphviz version 7.0.0 (20221023.0053)
 -->
<!-- Title: Graphical Class Hierarchy Pages: 1 -->
<svg width="278pt" height="88pt"
 viewBox="0.00 0.00 278.00 88.00" xmlns="http://www.w3.org/2000/svg" xmlns:xlink="http://www.w3.org/1999/xlink">
<g id="graph0" class="graph" transform="scale(1 1) rotate(0) translate(4 84)">
<title>Graphical Class Hierarchy</title>
<!-- Node0 -->
<g id="node1" class="node">
<title>Node0</title>
<g id="a_node1"><a xlink:title=" ">
<polygon fill="none" stroke="#bfbfbf" points="0,-30 0,-49 61,-49 61,-30 0,-30"/>
<text text-anchor="middle" x="30.5" y="-37" font-family="Helvetica,sans-Serif" font-size="10.00">TagHelper</text>
</a>
</g>
</g>
<!-- Node1 -->
<g id="node2" class="node">
<title>Node1</title>
<g id="a_node2"><a xlink:href="class_dot_net_identity_1_1_helpers_1_1_tag_helpers_1_1_user_profile_image_tag_helper.html" target="_top" xlink:title=" ">
<polygon fill="none" stroke="black" points="97,-49.5 97,-79.5 270,-79.5 270,-49.5 97,-49.5"/>
<text text-anchor="start" x="105" y="-67.5" font-family="Helvetica,sans-Serif" font-size="10.00">DotNetIdentity.Helpers.Tag</text>
<text text-anchor="middle" x="183.5" y="-56.5" font-family="Helvetica,sans-Serif" font-size="10.00">Helpers.UserProfileImageTagHelper</text>
</a>
</g>
</g>
<!-- Node0&#45;&gt;Node1 -->
<g id="edge1" class="edge">
<title>Node0&#45;&gt;Node1</title>
<path fill="none" stroke="midnightblue" d="M72.31,-46.26C80.14,-47.55 88.6,-48.95 97.24,-50.38"/>
<polygon fill="midnightblue" stroke="midnightblue" points="72.9,-42.81 62.47,-44.63 71.76,-49.71 72.9,-42.81"/>
</g>
<!-- Node2 -->
<g id="node3" class="node">
<title>Node2</title>
<g id="a_node3"><a xlink:href="class_dot_net_identity_1_1_helpers_1_1_tag_helpers_1_1_user_roles_tag_helper.html" target="_top" xlink:title=" ">
<polygon fill="none" stroke="black" points="111.5,-0.5 111.5,-30.5 255.5,-30.5 255.5,-0.5 111.5,-0.5"/>
<text text-anchor="start" x="119.5" y="-18.5" font-family="Helvetica,sans-Serif" font-size="10.00">DotNetIdentity.Helpers.Tag</text>
<text text-anchor="middle" x="183.5" y="-7.5" font-family="Helvetica,sans-Serif" font-size="10.00">Helpers.UserRolesTagHelper</text>
</a>
</g>
</g>
<!-- Node0&#45;&gt;Node2 -->
<g id="edge2" class="edge">
<title>Node0&#45;&gt;Node2</title>
<path fill="none" stroke="midnightblue" d="M72.17,-33.04C84.41,-31.09 98.21,-28.9 111.8,-26.74"/>
<polygon fill="midnightblue" stroke="midnightblue" points="71.79,-29.55 62.47,-34.58 72.89,-36.46 71.79,-29.55"/>
</g>
</g>
</svg>
