<?xml version="1.0" encoding="UTF-8" standalone="no"?>
<!DOCTYPE svg PUBLIC "-//W3C//DTD SVG 1.1//EN"
 "http://www.w3.org/Graphics/SVG/1.1/DTD/svg11.dtd">
<!-- Generated by graphviz version 7.0.0 (20221023.0053)
 -->
<!-- Title: Graphical Class Hierarchy Pages: 1 -->
<svg width="235pt" height="382pt"
 viewBox="0.00 0.00 235.00 382.00" xmlns="http://www.w3.org/2000/svg" xmlns:xlink="http://www.w3.org/1999/xlink">
<g id="graph0" class="graph" transform="scale(1 1) rotate(0) translate(4 378)">
<title>Graphical Class Hierarchy</title>
<!-- Node0 -->
<g id="node1" class="node">
<title>Node0</title>
<g id="a_node1"><a xlink:title=" ">
<polygon fill="none" stroke="#bfbfbf" points="0,-177 0,-196 59,-196 59,-177 0,-177"/>
<text text-anchor="middle" x="29.5" y="-184" font-family="Helvetica,sans-Serif" font-size="10.00">Controller</text>
</a>
</g>
</g>
<!-- Node1 -->
<g id="node2" class="node">
<title>Node1</title>
<g id="a_node2"><a xlink:href="class_dot_net_identity_1_1_controllers_1_1_admin_controller.html" target="_top" xlink:title="Controller Class for Admin views">
<polygon fill="none" stroke="black" points="95,-343.5 95,-373.5 227,-373.5 227,-343.5 95,-343.5"/>
<text text-anchor="start" x="103" y="-361.5" font-family="Helvetica,sans-Serif" font-size="10.00">DotNetIdentity.Controllers.</text>
<text text-anchor="middle" x="161" y="-350.5" font-family="Helvetica,sans-Serif" font-size="10.00">AdminController</text>
</a>
</g>
</g>
<!-- Node0&#45;&gt;Node1 -->
<g id="edge1" class="edge">
<title>Node0&#45;&gt;Node1</title>
<path fill="none" stroke="midnightblue" d="M34.08,-206.83C40.66,-238.37 57.58,-299.16 95,-334.5 98.76,-338.05 103.09,-341.09 107.7,-343.68"/>
<polygon fill="midnightblue" stroke="midnightblue" points="37.6,-206.58 32.27,-197.42 30.72,-207.9 37.6,-206.58"/>
</g>
<!-- Node2 -->
<g id="node3" class="node">
<title>Node2</title>
<g id="a_node3"><a xlink:href="class_dot_net_identity_1_1_controllers_1_1_claim_based_controller.html" target="_top" xlink:title="Controller to test ClaimBased Authorization">
<polygon fill="none" stroke="black" points="95,-294.5 95,-324.5 227,-324.5 227,-294.5 95,-294.5"/>
<text text-anchor="start" x="103" y="-312.5" font-family="Helvetica,sans-Serif" font-size="10.00">DotNetIdentity.Controllers.</text>
<text text-anchor="middle" x="161" y="-301.5" font-family="Helvetica,sans-Serif" font-size="10.00">ClaimBasedController</text>
</a>
</g>
</g>
<!-- Node0&#45;&gt;Node2 -->
<g id="edge2" class="edge">
<title>Node0&#45;&gt;Node2</title>
<path fill="none" stroke="midnightblue" d="M38.76,-206.33C48.94,-228.52 68.23,-264.13 95,-285.5 99.33,-288.95 104.19,-291.94 109.27,-294.51"/>
<polygon fill="midnightblue" stroke="midnightblue" points="41.99,-204.98 34.77,-197.22 35.58,-207.79 41.99,-204.98"/>
</g>
<!-- Node3 -->
<g id="node4" class="node">
<title>Node3</title>
<g id="a_node4"><a xlink:href="class_dot_net_identity_1_1_controllers_1_1_culture_controller.html" target="_top" xlink:title="controller for culture settings">
<polygon fill="none" stroke="black" points="95,-245.5 95,-275.5 227,-275.5 227,-245.5 95,-245.5"/>
<text text-anchor="start" x="103" y="-263.5" font-family="Helvetica,sans-Serif" font-size="10.00">DotNetIdentity.Controllers.</text>
<text text-anchor="middle" x="161" y="-252.5" font-family="Helvetica,sans-Serif" font-size="10.00">CultureController</text>
</a>
</g>
</g>
<!-- Node0&#45;&gt;Node3 -->
<g id="edge3" class="edge">
<title>Node0&#45;&gt;Node3</title>
<path fill="none" stroke="midnightblue" d="M48.77,-203.12C61.13,-213.73 78.22,-227.19 95,-236.5 101,-239.83 107.54,-242.86 114.1,-245.57"/>
<polygon fill="midnightblue" stroke="midnightblue" points="51.27,-200.66 41.45,-196.68 46.65,-205.92 51.27,-200.66"/>
</g>
<!-- Node4 -->
<g id="node5" class="node">
<title>Node4</title>
<g id="a_node5"><a xlink:href="class_dot_net_identity_1_1_controllers_1_1_errors_controller.html" target="_top" xlink:title="Controller for error views">
<polygon fill="none" stroke="black" points="95,-196.5 95,-226.5 227,-226.5 227,-196.5 95,-196.5"/>
<text text-anchor="start" x="103" y="-214.5" font-family="Helvetica,sans-Serif" font-size="10.00">DotNetIdentity.Controllers.</text>
<text text-anchor="middle" x="161" y="-203.5" font-family="Helvetica,sans-Serif" font-size="10.00">ErrorsController</text>
</a>
</g>
</g>
<!-- Node0&#45;&gt;Node4 -->
<g id="edge4" class="edge">
<title>Node0&#45;&gt;Node4</title>
<path fill="none" stroke="midnightblue" d="M70.04,-194.13C77.97,-195.66 86.49,-197.31 95.02,-198.96"/>
<polygon fill="midnightblue" stroke="midnightblue" points="70.89,-190.73 60.41,-192.27 69.56,-197.61 70.89,-190.73"/>
</g>
<!-- Node5 -->
<g id="node6" class="node">
<title>Node5</title>
<g id="a_node6"><a xlink:href="class_dot_net_identity_1_1_controllers_1_1_home_controller.html" target="_top" xlink:title="Controller for Home views">
<polygon fill="none" stroke="black" points="95,-147.5 95,-177.5 227,-177.5 227,-147.5 95,-147.5"/>
<text text-anchor="start" x="103" y="-165.5" font-family="Helvetica,sans-Serif" font-size="10.00">DotNetIdentity.Controllers.</text>
<text text-anchor="middle" x="161" y="-154.5" font-family="Helvetica,sans-Serif" font-size="10.00">HomeController</text>
</a>
</g>
</g>
<!-- Node0&#45;&gt;Node5 -->
<g id="edge5" class="edge">
<title>Node0&#45;&gt;Node5</title>
<path fill="none" stroke="midnightblue" d="M70.04,-179.17C77.97,-177.7 86.49,-176.12 95.02,-174.54"/>
<polygon fill="midnightblue" stroke="midnightblue" points="69.6,-175.69 60.41,-180.96 70.88,-182.58 69.6,-175.69"/>
</g>
<!-- Node6 -->
<g id="node7" class="node">
<title>Node6</title>
<g id="a_node7"><a xlink:href="class_dot_net_identity_1_1_controllers_1_1_role_based_controller.html" target="_top" xlink:title="Controller to test RoleBased Authorization">
<polygon fill="none" stroke="black" points="95,-98.5 95,-128.5 227,-128.5 227,-98.5 95,-98.5"/>
<text text-anchor="start" x="103" y="-116.5" font-family="Helvetica,sans-Serif" font-size="10.00">DotNetIdentity.Controllers.</text>
<text text-anchor="middle" x="161" y="-105.5" font-family="Helvetica,sans-Serif" font-size="10.00">RoleBasedController</text>
</a>
</g>
</g>
<!-- Node0&#45;&gt;Node6 -->
<g id="edge6" class="edge">
<title>Node0&#45;&gt;Node6</title>
<path fill="none" stroke="midnightblue" d="M49.8,-169.95C62.15,-159.93 78.83,-147.41 95,-138.5 101.67,-134.82 109,-131.44 116.25,-128.44"/>
<polygon fill="midnightblue" stroke="midnightblue" points="47.91,-166.97 42.45,-176.05 52.38,-172.35 47.91,-166.97"/>
</g>
<!-- Node7 -->
<g id="node8" class="node">
<title>Node7</title>
<g id="a_node8"><a xlink:href="class_dot_net_identity_1_1_controllers_1_1_settings_controller.html" target="_top" xlink:title="controller class for settings views">
<polygon fill="none" stroke="black" points="95,-49.5 95,-79.5 227,-79.5 227,-49.5 95,-49.5"/>
<text text-anchor="start" x="103" y="-67.5" font-family="Helvetica,sans-Serif" font-size="10.00">DotNetIdentity.Controllers.</text>
<text text-anchor="middle" x="161" y="-56.5" font-family="Helvetica,sans-Serif" font-size="10.00">SettingsController</text>
</a>
</g>
</g>
<!-- Node0&#45;&gt;Node7 -->
<g id="edge7" class="edge">
<title>Node0&#45;&gt;Node7</title>
<path fill="none" stroke="midnightblue" d="M39.07,-166.8C49.43,-145.11 68.78,-110.51 95,-89.5 99.91,-85.57 105.5,-82.2 111.3,-79.33"/>
<polygon fill="midnightblue" stroke="midnightblue" points="35.97,-165.17 35,-175.72 42.34,-168.08 35.97,-165.17"/>
</g>
<!-- Node8 -->
<g id="node9" class="node">
<title>Node8</title>
<g id="a_node9"><a xlink:href="class_dot_net_identity_1_1_controllers_1_1_user_controller.html" target="_top" xlink:title="Controller Class for User views">
<polygon fill="none" stroke="black" points="95,-0.5 95,-30.5 227,-30.5 227,-0.5 95,-0.5"/>
<text text-anchor="start" x="103" y="-18.5" font-family="Helvetica,sans-Serif" font-size="10.00">DotNetIdentity.Controllers.</text>
<text text-anchor="middle" x="161" y="-7.5" font-family="Helvetica,sans-Serif" font-size="10.00">UserController</text>
</a>
</g>
</g>
<!-- Node0&#45;&gt;Node8 -->
<g id="edge8" class="edge">
<title>Node0&#45;&gt;Node8</title>
<path fill="none" stroke="midnightblue" d="M34.31,-166.09C41.13,-134.93 58.32,-75.44 95,-40.5 99.12,-36.58 103.91,-33.26 109,-30.45"/>
<polygon fill="midnightblue" stroke="midnightblue" points="30.91,-165.24 32.35,-175.74 37.77,-166.63 30.91,-165.24"/>
</g>
</g>
</svg>
