<svg xmlns="http://www.w3.org/2000/svg" version="1.1" xmlns:xlink="http://www.w3.org/1999/xlink" xmlns:svgjs="http://svgjs.com/svgjs" width="1954" height="1303" preserveAspectRatio="none" viewBox="0 0 1954 1303"><g mask="url(&quot;#SvgjsMask1212&quot;)" fill="none"><rect width="1954" height="1303" x="0" y="0" fill="url(#SvgjsLinearGradient1213)"></rect><path d="M1692.79 639.21L1692.79 644.27L1715.81 644.27L1715.81 639.21zM1706.85 641.74 a8.96 8.96 0 1 0 17.92 0 a8.96 8.96 0 1 0 -17.92 0zM1686.41 676.36L1684.48 681.03L1699.41 687.22L1701.34 682.54zM1691.41 684.88 a8.96 8.96 0 1 0 17.92 0 a8.96 8.96 0 1 0 -17.92 0zM1666.3 708.24L1662.72 711.81L1695.94 745.03L1699.52 741.46zM1688.77 743.25 a8.96 8.96 0 1 0 17.92 0 a8.96 8.96 0 1 0 -17.92 0zM1635.52 729.99L1630.84 731.93L1648.97 775.68L1653.64 773.75zM1642.34 774.71 a8.96 8.96 0 1 0 17.92 0 a8.96 8.96 0 1 0 -17.92 0zM1598.75 738.31L1593.69 738.31L1593.69 772L1598.75 772zM1587.26 772 a8.96 8.96 0 1 0 17.92 0 a8.96 8.96 0 1 0 -17.92 0zM1561.6 731.93L1556.93 729.99L1540.64 769.31L1545.31 771.25zM1534.02 770.28 a8.96 8.96 0 1 0 17.92 0 a8.96 8.96 0 1 0 -17.92 0zM1529.72 711.81L1526.15 708.24L1495.39 739L1498.96 742.57zM1488.22 740.78 a8.96 8.96 0 1 0 17.92 0 a8.96 8.96 0 1 0 -17.92 0zM1507.97 681.03L1506.03 676.36L1474.89 689.26L1476.82 693.93zM1466.9 691.6 a8.96 8.96 0 1 0 17.92 0 a8.96 8.96 0 1 0 -17.92 0zM1499.65 644.27L1499.65 639.21L1473.74 639.21L1473.74 644.27zM1464.78 641.74 a8.96 8.96 0 1 0 17.92 0 a8.96 8.96 0 1 0 -17.92 0zM1506.03 607.12L1507.97 602.44L1487.37 593.91L1485.43 598.58zM1477.44 596.25 a8.96 8.96 0 1 0 17.92 0 a8.96 8.96 0 1 0 -17.92 0zM1526.15 575.24L1529.72 571.66L1518.83 560.77L1515.26 564.35zM1508.09 562.56 a8.96 8.96 0 1 0 17.92 0 a8.96 8.96 0 1 0 -17.92 0zM1556.93 553.48L1561.6 551.55L1543.94 508.92L1539.27 510.86zM1532.65 509.89 a8.96 8.96 0 1 0 17.92 0 a8.96 8.96 0 1 0 -17.92 0zM1593.69 545.17L1598.75 545.17L1598.75 502.62L1593.69 502.62zM1587.26 502.62 a8.96 8.96 0 1 0 17.92 0 a8.96 8.96 0 1 0 -17.92 0zM1630.84 551.55L1635.52 553.48L1640.36 541.8L1635.68 539.86zM1629.06 540.83 a8.96 8.96 0 1 0 17.92 0 a8.96 8.96 0 1 0 -17.92 0zM1662.72 571.66L1666.3 575.24L1693.13 548.41L1689.55 544.84zM1682.38 546.62 a8.96 8.96 0 1 0 17.92 0 a8.96 8.96 0 1 0 -17.92 0zM1684.48 602.44L1686.41 607.12L1726.07 590.69L1724.14 586.02zM1716.15 588.35 a8.96 8.96 0 1 0 17.92 0 a8.96 8.96 0 1 0 -17.92 0zM1499.61 641.74 a96.61 96.61 0 1 0 193.22 0 a96.61 96.61 0 1 0 -193.22 0z" fill="rgba(111, 66, 193, 1)"></path><path d="M1574.52 547.6 A95.60575999999999 95.60575999999999 0 0 1 1688.66 669.82M1688.66 669.82 A193.21151999999998 193.21151999999998 0 0 0 1574.52 547.6" fill="#58339c" fill-rule="nonzero"></path><path d="M1544.64 569.98 a16.42 16.42 0 1 0 32.84 0 a16.42 16.42 0 1 0 -32.84 0zM1605.16 730.72 a5.8 5.8 0 1 0 11.6 0 a5.8 5.8 0 1 0 -11.6 0zM1645.2 707.66 a8.69 8.69 0 1 0 17.38 0 a8.69 8.69 0 1 0 -17.38 0zM1598.11 634.42 a19.32 19.32 0 1 0 38.64 0 a19.32 19.32 0 1 0 -38.64 0zM1502.15 623.7 a12.56 12.56 0 1 0 25.12 0 a12.56 12.56 0 1 0 -25.12 0zM1549.45 667.02 a19.32 19.32 0 1 0 38.64 0 a19.32 19.32 0 1 0 -38.64 0zM1601.12 562.87 a14.49 14.49 0 1 0 28.98 0 a14.49 14.49 0 1 0 -28.98 0zM1545.37 613.86 a4.83 4.83 0 1 0 9.66 0 a4.83 4.83 0 1 0 -9.66 0zM1561 713.62 a7.73 7.73 0 1 0 15.46 0 a7.73 7.73 0 1 0 -15.46 0zM1658.18 672.53 a9.66 9.66 0 1 0 19.32 0 a9.66 9.66 0 1 0 -19.32 0z" fill="#58339c" fill-rule="nonzero"></path><path d="M732.56 762.06L732.56 767.11L751.02 767.11L751.02 762.06zM742.06 764.59 a8.96 8.96 0 1 0 17.92 0 a8.96 8.96 0 1 0 -17.92 0zM726.17 799.21L724.24 803.88L755.72 816.92L757.66 812.25zM747.73 814.58 a8.96 8.96 0 1 0 17.92 0 a8.96 8.96 0 1 0 -17.92 0zM706.06 831.08L702.48 834.66L729.04 861.22L732.62 857.64zM721.87 859.43 a8.96 8.96 0 1 0 17.92 0 a8.96 8.96 0 1 0 -17.92 0zM675.28 852.84L670.6 854.77L688.27 897.43L692.95 895.49zM681.65 896.46 a8.96 8.96 0 1 0 17.92 0 a8.96 8.96 0 1 0 -17.92 0zM638.51 861.16L633.46 861.16L633.46 892.66L638.51 892.66zM627.02 892.66 a8.96 8.96 0 1 0 17.92 0 a8.96 8.96 0 1 0 -17.92 0zM601.36 854.77L596.69 852.84L585.52 879.81L590.19 881.74zM578.9 880.78 a8.96 8.96 0 1 0 17.92 0 a8.96 8.96 0 1 0 -17.92 0zM569.48 834.66L565.91 831.08L545.85 851.15L549.42 854.72zM538.68 852.93 a8.96 8.96 0 1 0 17.92 0 a8.96 8.96 0 1 0 -17.92 0zM547.73 803.88L545.79 799.21L508.84 814.51L510.78 819.19zM500.85 816.85 a8.96 8.96 0 1 0 17.92 0 a8.96 8.96 0 1 0 -17.92 0zM539.41 767.11L539.41 762.06L513.91 762.06L513.91 767.11zM504.95 764.59 a8.96 8.96 0 1 0 17.92 0 a8.96 8.96 0 1 0 -17.92 0zM545.79 729.97L547.73 725.29L509.02 709.26L507.08 713.93zM499.09 711.59 a8.96 8.96 0 1 0 17.92 0 a8.96 8.96 0 1 0 -17.92 0zM565.91 698.09L569.48 694.51L548.98 674L545.4 677.58zM538.23 675.79 a8.96 8.96 0 1 0 17.92 0 a8.96 8.96 0 1 0 -17.92 0zM596.69 676.33L601.36 674.4L586.82 639.29L582.15 641.22zM575.53 640.26 a8.96 8.96 0 1 0 17.92 0 a8.96 8.96 0 1 0 -17.92 0zM633.46 668.01L638.51 668.01L638.51 647.25L633.46 647.25zM627.02 647.25 a8.96 8.96 0 1 0 17.92 0 a8.96 8.96 0 1 0 -17.92 0zM670.6 674.4L675.28 676.33L690.39 639.86L685.71 637.92zM679.09 638.89 a8.96 8.96 0 1 0 17.92 0 a8.96 8.96 0 1 0 -17.92 0zM702.48 694.51L706.06 698.09L720.18 683.97L716.6 680.39zM709.43 682.18 a8.96 8.96 0 1 0 17.92 0 a8.96 8.96 0 1 0 -17.92 0zM724.24 725.29L726.17 729.97L759.38 716.21L757.44 711.54zM749.45 713.88 a8.96 8.96 0 1 0 17.92 0 a8.96 8.96 0 1 0 -17.92 0zM539.37 764.59 a96.61 96.61 0 1 0 193.22 0 a96.61 96.61 0 1 0 -193.22 0z" fill="rgba(13, 202, 240, 1)"></path><path d="M644.47 668.35 A95.60575999999999 95.60575999999999 0 0 1 715.2 819.89M715.2 819.89 A193.21151999999998 193.21151999999998 0 0 0 644.47 668.35" fill="#0aa2c0" fill-rule="nonzero"></path><path d="M564.91 797.57 a19.32 19.32 0 1 0 38.64 0 a19.32 19.32 0 1 0 -38.64 0zM705.44 735.43 a10.63 10.63 0 1 0 21.26 0 a10.63 10.63 0 1 0 -21.26 0zM662.25 721.84 a12.56 12.56 0 1 0 25.12 0 a12.56 12.56 0 1 0 -25.12 0zM564.36 718.53 a19.32 19.32 0 1 0 38.64 0 a19.32 19.32 0 1 0 -38.64 0zM622.91 797.06 a5.8 5.8 0 1 0 11.6 0 a5.8 5.8 0 1 0 -11.6 0zM622.29 724.79 a8.69 8.69 0 1 0 17.38 0 a8.69 8.69 0 1 0 -17.38 0zM641.08 771.85 a4.83 4.83 0 1 0 9.66 0 a4.83 4.83 0 1 0 -9.66 0zM703.03 788.48 a12.56 12.56 0 1 0 25.12 0 a12.56 12.56 0 1 0 -25.12 0zM638.1 838.71 a19.32 19.32 0 1 0 38.64 0 a19.32 19.32 0 1 0 -38.64 0zM549.77 763.56 a5.8 5.8 0 1 0 11.6 0 a5.8 5.8 0 1 0 -11.6 0z" fill="#0aa2c0" fill-rule="nonzero"></path><path d="M477.6 1033.46L477.6 1035.99L490.25 1035.99L490.25 1033.46zM485.77 1034.73 a4.48 4.48 0 1 0 8.96 0 a4.48 4.48 0 1 0 -8.96 0zM474.41 1052.04L473.44 1054.37L486.36 1059.72L487.32 1057.39zM482.36 1058.56 a4.48 4.48 0 1 0 8.96 0 a4.48 4.48 0 1 0 -8.96 0zM464.35 1067.98L462.56 1069.77L474.73 1081.93L476.52 1080.15zM471.15 1081.04 a4.48 4.48 0 1 0 8.96 0 a4.48 4.48 0 1 0 -8.96 0zM448.96 1078.85L446.62 1079.82L449.95 1087.84L452.28 1086.87zM446.63 1087.36 a4.48 4.48 0 1 0 8.96 0 a4.48 4.48 0 1 0 -8.96 0zM430.58 1083.01L428.05 1083.01L428.05 1090.64L430.58 1090.64zM424.83 1090.64 a4.48 4.48 0 1 0 8.96 0 a4.48 4.48 0 1 0 -8.96 0zM412 1079.82L409.67 1078.85L406.43 1086.68L408.76 1087.65zM403.11 1087.16 a4.48 4.48 0 1 0 8.96 0 a4.48 4.48 0 1 0 -8.96 0zM396.06 1069.77L394.28 1067.98L379.43 1082.82L381.22 1084.61zM375.85 1083.71 a4.48 4.48 0 1 0 8.96 0 a4.48 4.48 0 1 0 -8.96 0zM385.19 1054.37L384.22 1052.04L362.78 1060.92L363.75 1063.25zM358.79 1062.08 a4.48 4.48 0 1 0 8.96 0 a4.48 4.48 0 1 0 -8.96 0zM381.03 1035.99L381.03 1033.46L373.38 1033.46L373.38 1035.99zM368.9 1034.73 a4.48 4.48 0 1 0 8.96 0 a4.48 4.48 0 1 0 -8.96 0zM384.22 1017.42L385.19 1015.08L369.84 1008.72L368.87 1011.06zM364.88 1009.89 a4.48 4.48 0 1 0 8.96 0 a4.48 4.48 0 1 0 -8.96 0zM394.28 1001.48L396.06 999.69L387.51 991.13L385.72 992.92zM382.13 992.03 a4.48 4.48 0 1 0 8.96 0 a4.48 4.48 0 1 0 -8.96 0zM409.67 990.6L412 989.63L408.74 981.76L406.41 982.73zM403.09 982.25 a4.48 4.48 0 1 0 8.96 0 a4.48 4.48 0 1 0 -8.96 0zM428.05 986.44L430.58 986.44L430.58 964.75L428.05 964.75zM424.83 964.75 a4.48 4.48 0 1 0 8.96 0 a4.48 4.48 0 1 0 -8.96 0zM446.62 989.63L448.96 990.6L451.93 983.42L449.6 982.45zM446.29 982.94 a4.48 4.48 0 1 0 8.96 0 a4.48 4.48 0 1 0 -8.96 0zM462.56 999.69L464.35 1001.48L478.15 987.68L476.36 985.89zM472.77 986.79 a4.48 4.48 0 1 0 8.96 0 a4.48 4.48 0 1 0 -8.96 0zM473.44 1015.08L474.41 1017.42L483.82 1013.52L482.85 1011.18zM478.86 1012.35 a4.48 4.48 0 1 0 8.96 0 a4.48 4.48 0 1 0 -8.96 0zM381.01 1034.73 a48.3 48.3 0 1 0 96.6 0 a48.3 48.3 0 1 0 -96.6 0z" fill="rgba(32, 201, 151, 1)"></path><path d="M444.86 989 A47.302879999999995 47.302879999999995 0 0 1 461.22 1070.99M461.22 1070.99 A96.60575999999999 96.60575999999999 0 0 0 444.86 989" fill="#1aa179" fill-rule="nonzero"></path><path d="M395.5 1001.22 a1.93 1.93 0 1 0 3.86 0 a1.93 1.93 0 1 0 -3.86 0zM434.33 1039.67 a9.66 9.66 0 1 0 19.32 0 a9.66 9.66 0 1 0 -19.32 0zM402.45 1016.32 a8.69 8.69 0 1 0 17.38 0 a8.69 8.69 0 1 0 -17.38 0zM455.46 1021.27 a5.31 5.31 0 1 0 10.62 0 a5.31 5.31 0 1 0 -10.62 0zM404.8 1050.62 a9.66 9.66 0 1 0 19.32 0 a9.66 9.66 0 1 0 -19.32 0zM423.04 999.78 a4.83 4.83 0 1 0 9.66 0 a4.83 4.83 0 1 0 -9.66 0zM382.45 1044.95 a2.9 2.9 0 1 0 5.8 0 a2.9 2.9 0 1 0 -5.8 0zM403.85 1073.44 a3.86 3.86 0 1 0 7.72 0 a3.86 3.86 0 1 0 -7.72 0zM441.16 1017.17 a2.42 2.42 0 1 0 4.84 0 a2.42 2.42 0 1 0 -4.84 0zM408.52 992.76 a2.42 2.42 0 1 0 4.84 0 a2.42 2.42 0 1 0 -4.84 0z" fill="#1aa179" fill-rule="nonzero"></path><path d="M1011.64 193.95L1011.64 199.01L1047.22 199.01L1047.22 193.95zM1038.26 196.48 a8.96 8.96 0 1 0 17.92 0 a8.96 8.96 0 1 0 -17.92 0zM1005.26 231.1L1003.32 235.77L1031.35 247.38L1033.29 242.71zM1023.36 245.05 a8.96 8.96 0 1 0 17.92 0 a8.96 8.96 0 1 0 -17.92 0zM985.15 262.98L981.57 266.55L1004.92 289.91L1008.5 286.33zM997.75 288.12 a8.96 8.96 0 1 0 17.92 0 a8.96 8.96 0 1 0 -17.92 0zM954.36 284.73L949.69 286.67L955.65 301.04L960.32 299.11zM949.02 300.07 a8.96 8.96 0 1 0 17.92 0 a8.96 8.96 0 1 0 -17.92 0zM917.6 293.05L912.54 293.05L912.54 310.18L917.6 310.18zM906.11 310.18 a8.96 8.96 0 1 0 17.92 0 a8.96 8.96 0 1 0 -17.92 0zM880.45 286.67L875.78 284.73L868.54 302.19L873.22 304.13zM861.92 303.16 a8.96 8.96 0 1 0 17.92 0 a8.96 8.96 0 1 0 -17.92 0zM848.57 266.55L844.99 262.98L813.53 294.44L817.1 298.02zM806.36 296.23 a8.96 8.96 0 1 0 17.92 0 a8.96 8.96 0 1 0 -17.92 0zM826.82 235.77L824.88 231.1L807.16 238.44L809.1 243.11zM799.17 240.77 a8.96 8.96 0 1 0 17.92 0 a8.96 8.96 0 1 0 -17.92 0zM818.5 199.01L818.5 193.95L795.64 193.95L795.64 199.01zM786.68 196.48 a8.96 8.96 0 1 0 17.92 0 a8.96 8.96 0 1 0 -17.92 0zM824.88 161.86L826.82 157.18L793.14 143.24L791.21 147.91zM783.21 145.57 a8.96 8.96 0 1 0 17.92 0 a8.96 8.96 0 1 0 -17.92 0zM844.99 129.98L848.57 126.4L830.04 107.88L826.47 111.45zM819.3 109.66 a8.96 8.96 0 1 0 17.92 0 a8.96 8.96 0 1 0 -17.92 0zM875.78 108.22L880.45 106.29L875.69 94.8L871.02 96.74zM864.4 95.77 a8.96 8.96 0 1 0 17.92 0 a8.96 8.96 0 1 0 -17.92 0zM912.54 99.91L917.6 99.91L917.6 75.36L912.54 75.36zM906.11 75.36 a8.96 8.96 0 1 0 17.92 0 a8.96 8.96 0 1 0 -17.92 0zM949.69 106.29L954.36 108.22L959.93 94.78L955.26 92.85zM948.63 93.81 a8.96 8.96 0 1 0 17.92 0 a8.96 8.96 0 1 0 -17.92 0zM981.57 126.4L985.15 129.98L1005.44 109.68L1001.86 106.11zM994.69 107.9 a8.96 8.96 0 1 0 17.92 0 a8.96 8.96 0 1 0 -17.92 0zM1003.32 157.18L1005.26 161.86L1041.86 146.7L1039.93 142.02zM1031.94 144.36 a8.96 8.96 0 1 0 17.92 0 a8.96 8.96 0 1 0 -17.92 0zM818.46 196.48 a96.61 96.61 0 1 0 193.22 0 a96.61 96.61 0 1 0 -193.22 0z" fill="rgba(13, 202, 240, 1)"></path><path d="M896.93 291.37 A95.60575999999999 95.60575999999999 0 0 1 841.83 133.48M841.83 133.48 A193.21151999999998 193.21151999999998 0 0 0 896.93 291.37" fill="#0aa2c0" fill-rule="nonzero"></path><path d="M966.44 191.55 a19.32 19.32 0 1 0 38.64 0 a19.32 19.32 0 1 0 -38.64 0zM889.17 109.71 a7.73 7.73 0 1 0 15.46 0 a7.73 7.73 0 1 0 -15.46 0zM819.02 196.45 a14.49 14.49 0 1 0 28.98 0 a14.49 14.49 0 1 0 -28.98 0zM928.84 135.4 a19.32 19.32 0 1 0 38.64 0 a19.32 19.32 0 1 0 -38.64 0zM873.69 200.87 a19.32 19.32 0 1 0 38.64 0 a19.32 19.32 0 1 0 -38.64 0zM830.05 239.53 a7.73 7.73 0 1 0 15.46 0 a7.73 7.73 0 1 0 -15.46 0zM862.46 252.88 a8.69 8.69 0 1 0 17.38 0 a8.69 8.69 0 1 0 -17.38 0zM936.43 181.78 a5.8 5.8 0 1 0 11.6 0 a5.8 5.8 0 1 0 -11.6 0zM995.4 233.55 a3.86 3.86 0 1 0 7.72 0 a3.86 3.86 0 1 0 -7.72 0zM931.28 279.04 a9.66 9.66 0 1 0 19.32 0 a9.66 9.66 0 1 0 -19.32 0z" fill="#0aa2c0" fill-rule="nonzero"></path><path d="M175.15 947.34L175.15 950.5L197.94 950.5L197.94 947.34zM192.34 948.92 a5.6 5.6 0 1 0 11.2 0 a5.6 5.6 0 1 0 -11.2 0zM171.16 970.56L169.95 973.48L185.52 979.93L186.73 977.01zM180.52 978.47 a5.6 5.6 0 1 0 11.2 0 a5.6 5.6 0 1 0 -11.2 0zM158.59 990.48L156.36 992.72L169.13 1005.5L171.37 1003.26zM164.65 1004.38 a5.6 5.6 0 1 0 11.2 0 a5.6 5.6 0 1 0 -11.2 0zM139.35 1004.08L136.43 1005.29L145.24 1026.56L148.16 1025.35zM141.1 1025.95 a5.6 5.6 0 1 0 11.2 0 a5.6 5.6 0 1 0 -11.2 0zM116.37 1009.28L113.21 1009.28L113.21 1023.61L116.37 1023.61zM109.19 1023.61 a5.6 5.6 0 1 0 11.2 0 a5.6 5.6 0 1 0 -11.2 0zM93.16 1005.29L90.24 1004.08L81.15 1026L84.07 1027.21zM77.01 1026.61 a5.6 5.6 0 1 0 11.2 0 a5.6 5.6 0 1 0 -11.2 0zM73.23 992.72L71 990.48L65.56 995.92L67.79 998.16zM61.08 997.04 a5.6 5.6 0 1 0 11.2 0 a5.6 5.6 0 1 0 -11.2 0zM59.63 973.48L58.43 970.56L33.83 980.75L35.04 983.67zM28.84 982.21 a5.6 5.6 0 1 0 11.2 0 a5.6 5.6 0 1 0 -11.2 0zM54.44 950.5L54.44 947.34L32.92 947.34L32.92 950.5zM27.32 948.92 a5.6 5.6 0 1 0 11.2 0 a5.6 5.6 0 1 0 -11.2 0zM58.43 927.28L59.63 924.36L45.3 918.42L44.09 921.34zM39.09 919.88 a5.6 5.6 0 1 0 11.2 0 a5.6 5.6 0 1 0 -11.2 0zM71 907.36L73.23 905.12L60.03 891.92L57.79 894.16zM53.31 893.04 a5.6 5.6 0 1 0 11.2 0 a5.6 5.6 0 1 0 -11.2 0zM90.24 893.76L93.16 892.55L85.18 873.3L82.26 874.51zM78.12 873.9 a5.6 5.6 0 1 0 11.2 0 a5.6 5.6 0 1 0 -11.2 0zM113.21 888.56L116.37 888.56L116.37 870.17L113.21 870.17zM109.19 870.17 a5.6 5.6 0 1 0 11.2 0 a5.6 5.6 0 1 0 -11.2 0zM136.43 892.55L139.35 893.76L149.84 868.44L146.92 867.23zM142.78 867.83 a5.6 5.6 0 1 0 11.2 0 a5.6 5.6 0 1 0 -11.2 0zM156.36 905.12L158.59 907.36L177.06 888.89L174.83 886.65zM170.34 887.77 a5.6 5.6 0 1 0 11.2 0 a5.6 5.6 0 1 0 -11.2 0zM169.95 924.36L171.16 927.28L190.51 919.27L189.3 916.35zM184.3 917.81 a5.6 5.6 0 1 0 11.2 0 a5.6 5.6 0 1 0 -11.2 0zM54.41 948.92 a60.38 60.38 0 1 0 120.76 0 a60.38 60.38 0 1 0 -120.76 0z" fill="rgba(255, 193, 7, 1)"></path><path d="M172.88 965.4 A59.3786 59.3786 0 0 1 71.57 991.08M71.57 991.08 A120.7572 120.7572 0 0 0 172.88 965.4" fill="#d29d00" fill-rule="nonzero"></path><path d="M135.06 999.89 a3.62 3.62 0 1 0 7.24 0 a3.62 3.62 0 1 0 -7.24 0zM117.25 929.49 a12.08 12.08 0 1 0 24.16 0 a12.08 12.08 0 1 0 -24.16 0zM78.83 993.93 a5.43 5.43 0 1 0 10.86 0 a5.43 5.43 0 1 0 -10.86 0zM64.83 921.07 a12.08 12.08 0 1 0 24.16 0 a12.08 12.08 0 1 0 -24.16 0zM95.11 960.08 a12.08 12.08 0 1 0 24.16 0 a12.08 12.08 0 1 0 -24.16 0zM76.57 958.36 a3.02 3.02 0 1 0 6.04 0 a3.02 3.02 0 1 0 -6.04 0zM137.57 956.09 a5.43 5.43 0 1 0 10.86 0 a5.43 5.43 0 1 0 -10.86 0zM150.14 905.46 a2.42 2.42 0 1 0 4.84 0 a2.42 2.42 0 1 0 -4.84 0zM146.21 977.87 a6.04 6.04 0 1 0 12.08 0 a6.04 6.04 0 1 0 -12.08 0zM115.19 891.78 a3.02 3.02 0 1 0 6.04 0 a3.02 3.02 0 1 0 -6.04 0z" fill="#d29d00" fill-rule="nonzero"></path><path d="M207.22 421.89L207.22 425.68L219.23 425.68L219.23 421.89zM212.51 423.78 a6.72 6.72 0 1 0 13.44 0 a6.72 6.72 0 1 0 -13.44 0zM202.44 449.75L200.99 453.25L228.71 464.74L230.16 461.23zM222.72 462.99 a6.72 6.72 0 1 0 13.44 0 a6.72 6.72 0 1 0 -13.44 0zM187.35 473.66L184.67 476.34L194.85 486.52L197.53 483.84zM189.47 485.18 a6.72 6.72 0 1 0 13.44 0 a6.72 6.72 0 1 0 -13.44 0zM164.27 489.97L160.76 491.43L166.85 506.13L170.36 504.68zM161.89 505.41 a6.72 6.72 0 1 0 13.44 0 a6.72 6.72 0 1 0 -13.44 0zM136.69 496.21L132.9 496.21L132.9 515.65L136.69 515.65zM128.08 515.65 a6.72 6.72 0 1 0 13.44 0 a6.72 6.72 0 1 0 -13.44 0zM108.83 491.43L105.33 489.97L97.18 509.63L100.69 511.09zM92.21 510.36 a6.72 6.72 0 1 0 13.44 0 a6.72 6.72 0 1 0 -13.44 0zM84.92 476.34L82.24 473.66L64.5 491.4L67.18 494.08zM59.12 492.74 a6.72 6.72 0 1 0 13.44 0 a6.72 6.72 0 1 0 -13.44 0zM68.61 453.25L67.15 449.75L50.87 456.49L52.33 460zM44.88 458.24 a6.72 6.72 0 1 0 13.44 0 a6.72 6.72 0 1 0 -13.44 0zM62.37 425.68L62.37 421.89L42.07 421.89L42.07 425.68zM35.35 423.78 a6.72 6.72 0 1 0 13.44 0 a6.72 6.72 0 1 0 -13.44 0zM67.15 397.82L68.61 394.31L36.4 380.97L34.95 384.48zM28.95 382.73 a6.72 6.72 0 1 0 13.44 0 a6.72 6.72 0 1 0 -13.44 0zM82.24 373.91L84.92 371.23L67.17 353.48L64.49 356.16zM59.11 354.82 a6.72 6.72 0 1 0 13.44 0 a6.72 6.72 0 1 0 -13.44 0zM105.33 357.59L108.83 356.14L97.55 328.91L94.04 330.36zM89.08 329.63 a6.72 6.72 0 1 0 13.44 0 a6.72 6.72 0 1 0 -13.44 0zM132.9 351.35L136.69 351.35L136.69 323L132.9 323zM128.08 323 a6.72 6.72 0 1 0 13.44 0 a6.72 6.72 0 1 0 -13.44 0zM160.76 356.14L164.27 357.59L175.18 331.24L171.67 329.79zM166.71 330.52 a6.72 6.72 0 1 0 13.44 0 a6.72 6.72 0 1 0 -13.44 0zM184.67 371.23L187.35 373.91L211.28 349.98L208.6 347.3zM203.22 348.64 a6.72 6.72 0 1 0 13.44 0 a6.72 6.72 0 1 0 -13.44 0zM200.99 394.31L202.44 397.82L216.36 392.05L214.91 388.55zM208.91 390.3 a6.72 6.72 0 1 0 13.44 0 a6.72 6.72 0 1 0 -13.44 0zM62.35 423.78 a72.45 72.45 0 1 0 144.9 0 a72.45 72.45 0 1 0 -144.9 0z" fill="rgba(13, 202, 240, 1)"></path><path d="M126.96 495.81 A71.45432 71.45432 0 0 1 76.25 381.1M76.25 381.1 A144.90864 144.90864 0 0 0 126.96 495.81" fill="#0aa2c0" fill-rule="nonzero"></path><path d="M119.39 375.67 a14.49 14.49 0 1 0 28.98 0 a14.49 14.49 0 1 0 -28.98 0zM164.33 405.36 a14.49 14.49 0 1 0 28.98 0 a14.49 14.49 0 1 0 -28.98 0zM147.52 457.45 a14.49 14.49 0 1 0 28.98 0 a14.49 14.49 0 1 0 -28.98 0zM72.69 450.69 a14.49 14.49 0 1 0 28.98 0 a14.49 14.49 0 1 0 -28.98 0zM67.53 399.89 a13.77 13.77 0 1 0 27.54 0 a13.77 13.77 0 1 0 -27.54 0zM107.53 417.58 a14.49 14.49 0 1 0 28.98 0 a14.49 14.49 0 1 0 -28.98 0zM126.53 473.6 a5.07 5.07 0 1 0 10.14 0 a5.07 5.07 0 1 0 -10.14 0zM146.58 490.2 a3.62 3.62 0 1 0 7.24 0 a3.62 3.62 0 1 0 -7.24 0zM185.5 439.06 a3.62 3.62 0 1 0 7.24 0 a3.62 3.62 0 1 0 -7.24 0zM95.21 372.31 a4.35 4.35 0 1 0 8.7 0 a4.35 4.35 0 1 0 -8.7 0z" fill="#0aa2c0" fill-rule="nonzero"></path><path d="M1408.66 972.17L1408.66 977.22L1445.54 977.22L1445.54 972.17zM1436.58 974.69 a8.96 8.96 0 1 0 17.92 0 a8.96 8.96 0 1 0 -17.92 0zM1402.28 1009.31L1400.34 1013.99L1414.36 1019.79L1416.29 1015.12zM1406.37 1017.46 a8.96 8.96 0 1 0 17.92 0 a8.96 8.96 0 1 0 -17.92 0zM1382.16 1041.19L1378.59 1044.77L1395.98 1062.16L1399.56 1058.59zM1388.81 1060.38 a8.96 8.96 0 1 0 17.92 0 a8.96 8.96 0 1 0 -17.92 0zM1351.38 1062.95L1346.71 1064.88L1362.07 1101.97L1366.74 1100.03zM1355.45 1101 a8.96 8.96 0 1 0 17.92 0 a8.96 8.96 0 1 0 -17.92 0zM1314.62 1071.27L1309.56 1071.27L1309.56 1098.05L1314.62 1098.05zM1303.13 1098.05 a8.96 8.96 0 1 0 17.92 0 a8.96 8.96 0 1 0 -17.92 0zM1277.47 1064.88L1272.8 1062.95L1256.08 1103.29L1260.76 1105.23zM1249.46 1104.26 a8.96 8.96 0 1 0 17.92 0 a8.96 8.96 0 1 0 -17.92 0zM1245.59 1044.77L1242.01 1041.19L1223.52 1059.68L1227.1 1063.26zM1216.35 1061.47 a8.96 8.96 0 1 0 17.92 0 a8.96 8.96 0 1 0 -17.92 0zM1223.84 1013.99L1221.9 1009.31L1192.91 1021.32L1194.84 1026zM1184.92 1023.66 a8.96 8.96 0 1 0 17.92 0 a8.96 8.96 0 1 0 -17.92 0zM1215.52 977.22L1215.52 972.17L1178.02 972.17L1178.02 977.22zM1169.06 974.69 a8.96 8.96 0 1 0 17.92 0 a8.96 8.96 0 1 0 -17.92 0zM1221.9 940.07L1223.84 935.4L1201.43 926.12L1199.5 930.79zM1191.5 928.46 a8.96 8.96 0 1 0 17.92 0 a8.96 8.96 0 1 0 -17.92 0zM1242.01 908.19L1245.59 904.62L1212 871.02L1208.42 874.6zM1201.25 872.81 a8.96 8.96 0 1 0 17.92 0 a8.96 8.96 0 1 0 -17.92 0zM1272.8 886.44L1277.47 884.5L1260.85 844.38L1256.18 846.32zM1249.55 845.35 a8.96 8.96 0 1 0 17.92 0 a8.96 8.96 0 1 0 -17.92 0zM1309.56 878.12L1314.62 878.12L1314.62 836.25L1309.56 836.25zM1303.13 836.25 a8.96 8.96 0 1 0 17.92 0 a8.96 8.96 0 1 0 -17.92 0zM1346.71 884.5L1351.38 886.44L1357.23 872.31L1352.56 870.38zM1345.94 871.35 a8.96 8.96 0 1 0 17.92 0 a8.96 8.96 0 1 0 -17.92 0zM1378.59 904.62L1382.16 908.19L1397.2 893.16L1393.62 889.59zM1386.45 891.37 a8.96 8.96 0 1 0 17.92 0 a8.96 8.96 0 1 0 -17.92 0zM1400.34 935.4L1402.28 940.07L1445.43 922.2L1443.5 917.53zM1435.51 919.86 a8.96 8.96 0 1 0 17.92 0 a8.96 8.96 0 1 0 -17.92 0zM1215.48 974.69 a96.61 96.61 0 1 0 193.22 0 a96.61 96.61 0 1 0 -193.22 0z" fill="rgba(32, 201, 151, 1)"></path><path d="M1408.36 982.69 A95.60575999999999 95.60575999999999 0 0 1 1257.19 1054.18M1257.19 1054.18 A193.21151999999998 193.21151999999998 0 0 0 1408.36 982.69" fill="#1aa179" fill-rule="nonzero"></path><path d="M1256.49 1018.96 a19.32 19.32 0 1 0 38.64 0 a19.32 19.32 0 1 0 -38.64 0zM1234.37 920.25 a7.73 7.73 0 1 0 15.46 0 a7.73 7.73 0 1 0 -15.46 0zM1305 989.91 a7.73 7.73 0 1 0 15.46 0 a7.73 7.73 0 1 0 -15.46 0zM1330.65 1029.27 a19.32 19.32 0 1 0 38.64 0 a19.32 19.32 0 1 0 -38.64 0zM1260.77 963.65 a16.42 16.42 0 1 0 32.84 0 a16.42 16.42 0 1 0 -32.84 0zM1302.97 934.61 a7.73 7.73 0 1 0 15.46 0 a7.73 7.73 0 1 0 -15.46 0zM1284.89 903.06 a8.69 8.69 0 1 0 17.38 0 a8.69 8.69 0 1 0 -17.38 0zM1337.64 938.31 a14.49 14.49 0 1 0 28.98 0 a14.49 14.49 0 1 0 -28.98 0zM1389.11 974.2 a9.66 9.66 0 1 0 19.32 0 a9.66 9.66 0 1 0 -19.32 0zM1350.97 980.89 a8.69 8.69 0 1 0 17.38 0 a8.69 8.69 0 1 0 -17.38 0z" fill="#1aa179" fill-rule="nonzero"></path><path d="M1892.89 407.51L1892.89 410.04L1900.75 410.04L1900.75 407.51zM1896.27 408.77 a4.48 4.48 0 1 0 8.96 0 a4.48 4.48 0 1 0 -8.96 0zM1889.7 426.08L1888.73 428.42L1904.42 434.92L1905.38 432.58zM1900.42 433.75 a4.48 4.48 0 1 0 8.96 0 a4.48 4.48 0 1 0 -8.96 0zM1879.64 442.02L1877.85 443.81L1894.17 460.13L1895.96 458.34zM1890.58 459.24 a4.48 4.48 0 1 0 8.96 0 a4.48 4.48 0 1 0 -8.96 0zM1864.25 452.9L1861.91 453.87L1867.45 467.24L1869.78 466.27zM1864.14 466.75 a4.48 4.48 0 1 0 8.96 0 a4.48 4.48 0 1 0 -8.96 0zM1845.87 457.06L1843.34 457.06L1843.34 464.19L1845.87 464.19zM1840.12 464.19 a4.48 4.48 0 1 0 8.96 0 a4.48 4.48 0 1 0 -8.96 0zM1827.29 453.87L1824.95 452.9L1822.24 459.46L1824.57 460.43zM1818.93 459.94 a4.48 4.48 0 1 0 8.96 0 a4.48 4.48 0 1 0 -8.96 0zM1811.35 443.81L1809.56 442.02L1793.6 457.98L1795.39 459.77zM1790.02 458.88 a4.48 4.48 0 1 0 8.96 0 a4.48 4.48 0 1 0 -8.96 0zM1800.47 428.42L1799.51 426.08L1781.64 433.48L1782.61 435.82zM1777.64 434.65 a4.48 4.48 0 1 0 8.96 0 a4.48 4.48 0 1 0 -8.96 0zM1796.31 410.04L1796.31 407.51L1788.9 407.51L1788.9 410.04zM1784.42 408.77 a4.48 4.48 0 1 0 8.96 0 a4.48 4.48 0 1 0 -8.96 0zM1799.51 391.46L1800.47 389.13L1783.12 381.94L1782.16 384.28zM1778.16 383.11 a4.48 4.48 0 1 0 8.96 0 a4.48 4.48 0 1 0 -8.96 0zM1809.56 375.52L1811.35 373.74L1803.09 365.47L1801.3 367.26zM1797.71 366.36 a4.48 4.48 0 1 0 8.96 0 a4.48 4.48 0 1 0 -8.96 0zM1824.95 364.65L1827.29 363.68L1819.17 344.07L1816.83 345.04zM1813.52 344.56 a4.48 4.48 0 1 0 8.96 0 a4.48 4.48 0 1 0 -8.96 0zM1843.34 360.49L1845.87 360.49L1845.87 344.71L1843.34 344.71zM1840.12 344.71 a4.48 4.48 0 1 0 8.96 0 a4.48 4.48 0 1 0 -8.96 0zM1861.91 363.68L1864.25 364.65L1868.09 355.36L1865.76 354.39zM1862.45 354.88 a4.48 4.48 0 1 0 8.96 0 a4.48 4.48 0 1 0 -8.96 0zM1877.85 373.74L1879.64 375.52L1890.7 364.46L1888.92 362.67zM1885.33 363.56 a4.48 4.48 0 1 0 8.96 0 a4.48 4.48 0 1 0 -8.96 0zM1888.73 389.13L1889.7 391.46L1901.9 386.41L1900.93 384.07zM1896.94 385.24 a4.48 4.48 0 1 0 8.96 0 a4.48 4.48 0 1 0 -8.96 0zM1796.3 408.77 a48.3 48.3 0 1 0 96.6 0 a48.3 48.3 0 1 0 -96.6 0z" fill="rgba(13, 202, 240, 1)"></path><path d="M1865.05 365.01 A47.302879999999995 47.302879999999995 0 0 1 1872.35 448.31M1872.35 448.31 A96.60575999999999 96.60575999999999 0 0 0 1865.05 365.01" fill="#0aa2c0" fill-rule="nonzero"></path><path d="M1809.14 421.04 a9.66 9.66 0 1 0 19.32 0 a9.66 9.66 0 1 0 -19.32 0zM1831.16 402.66 a7.73 7.73 0 1 0 15.46 0 a7.73 7.73 0 1 0 -15.46 0zM1826.95 385.06 a2.42 2.42 0 1 0 4.84 0 a2.42 2.42 0 1 0 -4.84 0zM1885.48 413.53 a3.38 3.38 0 1 0 6.76 0 a3.38 3.38 0 1 0 -6.76 0zM1798.23 395.87 a3.86 3.86 0 1 0 7.72 0 a3.86 3.86 0 1 0 -7.72 0zM1837.12 428.83 a8.69 8.69 0 1 0 17.38 0 a8.69 8.69 0 1 0 -17.38 0zM1858.62 409.38 a8.69 8.69 0 1 0 17.38 0 a8.69 8.69 0 1 0 -17.38 0zM1860.06 442.47 a4.35 4.35 0 1 0 8.7 0 a4.35 4.35 0 1 0 -8.7 0zM1819.27 445.81 a6.28 6.28 0 1 0 12.56 0 a6.28 6.28 0 1 0 -12.56 0zM1873.9 388.91 a5.31 5.31 0 1 0 10.62 0 a5.31 5.31 0 1 0 -10.62 0z" fill="#0aa2c0" fill-rule="nonzero"></path><path d="M1441.23 223.41L1441.23 228.47L1468.33 228.47L1468.33 223.41zM1459.37 225.94 a8.96 8.96 0 1 0 17.92 0 a8.96 8.96 0 1 0 -17.92 0zM1434.85 260.56L1432.91 265.24L1476.84 283.43L1478.77 278.76zM1468.84 281.09 a8.96 8.96 0 1 0 17.92 0 a8.96 8.96 0 1 0 -17.92 0zM1414.74 292.44L1411.16 296.02L1443.05 327.91L1446.63 324.33zM1435.88 326.12 a8.96 8.96 0 1 0 17.92 0 a8.96 8.96 0 1 0 -17.92 0zM1383.95 314.2L1379.28 316.13L1384.92 329.74L1389.59 327.81zM1378.29 328.77 a8.96 8.96 0 1 0 17.92 0 a8.96 8.96 0 1 0 -17.92 0zM1347.19 322.52L1342.13 322.52L1342.13 353.43L1347.19 353.43zM1335.7 353.43 a8.96 8.96 0 1 0 17.92 0 a8.96 8.96 0 1 0 -17.92 0zM1310.04 316.13L1305.37 314.2L1291.93 346.63L1296.6 348.57zM1285.31 347.6 a8.96 8.96 0 1 0 17.92 0 a8.96 8.96 0 1 0 -17.92 0zM1278.16 296.02L1274.59 292.44L1261.65 305.38L1265.22 308.96zM1254.47 307.17 a8.96 8.96 0 1 0 17.92 0 a8.96 8.96 0 1 0 -17.92 0zM1256.41 265.24L1254.47 260.56L1227.68 271.66L1229.61 276.33zM1219.69 274 a8.96 8.96 0 1 0 17.92 0 a8.96 8.96 0 1 0 -17.92 0zM1248.09 228.47L1248.09 223.41L1222.02 223.41L1222.02 228.47zM1213.06 225.94 a8.96 8.96 0 1 0 17.92 0 a8.96 8.96 0 1 0 -17.92 0zM1254.47 191.32L1256.41 186.65L1214.27 169.2L1212.33 173.87zM1204.34 171.53 a8.96 8.96 0 1 0 17.92 0 a8.96 8.96 0 1 0 -17.92 0zM1274.59 159.44L1278.16 155.87L1268.95 146.65L1265.37 150.23zM1258.2 148.44 a8.96 8.96 0 1 0 17.92 0 a8.96 8.96 0 1 0 -17.92 0zM1305.37 137.69L1310.04 135.75L1300.68 113.15L1296 115.08zM1289.38 114.11 a8.96 8.96 0 1 0 17.92 0 a8.96 8.96 0 1 0 -17.92 0zM1342.13 129.37L1347.19 129.37L1347.19 112.01L1342.13 112.01zM1335.7 112.01 a8.96 8.96 0 1 0 17.92 0 a8.96 8.96 0 1 0 -17.92 0zM1379.28 135.75L1383.95 137.69L1393.49 114.67L1388.82 112.73zM1382.19 113.7 a8.96 8.96 0 1 0 17.92 0 a8.96 8.96 0 1 0 -17.92 0zM1411.16 155.87L1414.74 159.44L1446.31 127.87L1442.73 124.3zM1435.56 126.08 a8.96 8.96 0 1 0 17.92 0 a8.96 8.96 0 1 0 -17.92 0zM1432.91 186.65L1434.85 191.32L1466.48 178.22L1464.55 173.55zM1456.56 175.88 a8.96 8.96 0 1 0 17.92 0 a8.96 8.96 0 1 0 -17.92 0zM1248.05 225.94 a96.61 96.61 0 1 0 193.22 0 a96.61 96.61 0 1 0 -193.22 0z" fill="rgba(220, 53, 69, 1)"></path><path d="M1389.97 140.62 A95.60575999999999 95.60575999999999 0 0 1 1396.07 307.74M1396.07 307.74 A193.21151999999998 193.21151999999998 0 0 0 1389.97 140.62" fill="#ba202f" fill-rule="nonzero"></path><path d="M1331.16 309.55 a12.56 12.56 0 1 0 25.12 0 a12.56 12.56 0 1 0 -25.12 0zM1346.33 256.31 a19.32 19.32 0 1 0 38.64 0 a19.32 19.32 0 1 0 -38.64 0zM1393.54 287.31 a7.73 7.73 0 1 0 15.46 0 a7.73 7.73 0 1 0 -15.46 0zM1376.55 311.1 a3.86 3.86 0 1 0 7.72 0 a3.86 3.86 0 1 0 -7.72 0zM1403.84 244.73 a12.56 12.56 0 1 0 25.12 0 a12.56 12.56 0 1 0 -25.12 0zM1304.39 171.22 a19.32 19.32 0 1 0 38.64 0 a19.32 19.32 0 1 0 -38.64 0zM1248.11 227.75 a16.42 16.42 0 1 0 32.84 0 a16.42 16.42 0 1 0 -32.84 0zM1276.21 273.89 a19.32 19.32 0 1 0 38.64 0 a19.32 19.32 0 1 0 -38.64 0zM1360.32 189.16 a17.39 17.39 0 1 0 34.78 0 a17.39 17.39 0 1 0 -34.78 0zM1417.9 207.93 a4.83 4.83 0 1 0 9.66 0 a4.83 4.83 0 1 0 -9.66 0z" fill="#ba202f" fill-rule="nonzero"></path><path d="M1298.53 560L1298.53 562.53L1309.78 562.53L1309.78 560zM1305.3 561.27 a4.48 4.48 0 1 0 8.96 0 a4.48 4.48 0 1 0 -8.96 0zM1295.34 578.58L1294.37 580.92L1311.97 588.21L1312.94 585.87zM1307.98 587.04 a4.48 4.48 0 1 0 8.96 0 a4.48 4.48 0 1 0 -8.96 0zM1285.28 594.52L1283.5 596.31L1287.82 600.63L1289.61 598.85zM1284.24 599.74 a4.48 4.48 0 1 0 8.96 0 a4.48 4.48 0 1 0 -8.96 0zM1269.89 605.4L1267.56 606.36L1271.33 615.46L1273.66 614.5zM1268.01 614.98 a4.48 4.48 0 1 0 8.96 0 a4.48 4.48 0 1 0 -8.96 0zM1251.51 609.55L1248.98 609.55L1248.98 632.75L1251.51 632.75zM1245.77 632.75 a4.48 4.48 0 1 0 8.96 0 a4.48 4.48 0 1 0 -8.96 0zM1232.94 606.36L1230.6 605.4L1227.73 612.33L1230.06 613.3zM1224.41 612.82 a4.48 4.48 0 1 0 8.96 0 a4.48 4.48 0 1 0 -8.96 0zM1217 596.31L1215.21 594.52L1200.2 609.52L1201.99 611.31zM1196.62 610.42 a4.48 4.48 0 1 0 8.96 0 a4.48 4.48 0 1 0 -8.96 0zM1206.12 580.92L1205.15 578.58L1195.41 582.61L1196.38 584.95zM1191.42 583.78 a4.48 4.48 0 1 0 8.96 0 a4.48 4.48 0 1 0 -8.96 0zM1201.96 562.53L1201.96 560L1182.2 560L1182.2 562.53zM1177.72 561.27 a4.48 4.48 0 1 0 8.96 0 a4.48 4.48 0 1 0 -8.96 0zM1205.15 543.96L1206.12 541.62L1196.61 537.68L1195.65 540.02zM1191.65 538.85 a4.48 4.48 0 1 0 8.96 0 a4.48 4.48 0 1 0 -8.96 0zM1215.21 528.02L1217 526.23L1212.68 521.91L1210.89 523.7zM1207.3 522.8 a4.48 4.48 0 1 0 8.96 0 a4.48 4.48 0 1 0 -8.96 0zM1230.6 517.14L1232.94 516.17L1227.22 502.36L1224.88 503.33zM1221.57 502.85 a4.48 4.48 0 1 0 8.96 0 a4.48 4.48 0 1 0 -8.96 0zM1248.98 512.98L1251.51 512.98L1251.51 500.56L1248.98 500.56zM1245.77 500.56 a4.48 4.48 0 1 0 8.96 0 a4.48 4.48 0 1 0 -8.96 0zM1267.56 516.17L1269.89 517.14L1272.21 511.54L1269.88 510.58zM1266.56 511.06 a4.48 4.48 0 1 0 8.96 0 a4.48 4.48 0 1 0 -8.96 0zM1283.5 526.23L1285.28 528.02L1300.14 513.16L1298.35 511.37zM1294.77 512.27 a4.48 4.48 0 1 0 8.96 0 a4.48 4.48 0 1 0 -8.96 0zM1294.37 541.62L1295.34 543.96L1303.28 540.67L1302.31 538.33zM1298.31 539.5 a4.48 4.48 0 1 0 8.96 0 a4.48 4.48 0 1 0 -8.96 0zM1201.95 561.27 a48.3 48.3 0 1 0 96.6 0 a48.3 48.3 0 1 0 -96.6 0z" fill="rgba(220, 53, 69, 1)"></path><path d="M1288.02 531.17 A47.302879999999995 47.302879999999995 0 0 1 1257.53 609.02M1257.53 609.02 A96.60575999999999 96.60575999999999 0 0 0 1288.02 531.17" fill="#ba202f" fill-rule="nonzero"></path><path d="M1202.19 559.4 a1.93 1.93 0 1 0 3.86 0 a1.93 1.93 0 1 0 -3.86 0zM1275.75 551.97 a9.66 9.66 0 1 0 19.32 0 a9.66 9.66 0 1 0 -19.32 0zM1254.23 528.07 a9.66 9.66 0 1 0 19.32 0 a9.66 9.66 0 1 0 -19.32 0zM1230.98 530.26 a6.76 6.76 0 1 0 13.52 0 a6.76 6.76 0 1 0 -13.52 0zM1222.31 560.3 a9.66 9.66 0 1 0 19.32 0 a9.66 9.66 0 1 0 -19.32 0zM1250.53 553.55 a4.35 4.35 0 1 0 8.7 0 a4.35 4.35 0 1 0 -8.7 0zM1241.95 606.11 a2.9 2.9 0 1 0 5.8 0 a2.9 2.9 0 1 0 -5.8 0zM1275.47 577.05 a5.8 5.8 0 1 0 11.6 0 a5.8 5.8 0 1 0 -11.6 0zM1243.95 577.3 a3.38 3.38 0 1 0 6.76 0 a3.38 3.38 0 1 0 -6.76 0zM1260.77 595.71 a7.25 7.25 0 1 0 14.5 0 a7.25 7.25 0 1 0 -14.5 0z" fill="#ba202f" fill-rule="nonzero"></path></g><defs><mask id="SvgjsMask1212"><rect width="1954" height="1303" fill="#ffffff"></rect></mask><linearGradient x1="100%" y1="50%" x2="0%" y2="50%" gradientUnits="userSpaceOnUse" id="SvgjsLinearGradient1213"><stop stop-color="#0e2a47" offset="0"></stop><stop stop-color="rgba(67, 94, 190, 1)" offset="1"></stop></linearGradient></defs></svg>